solid OpenSCAD_Model
  facet normal -1 0 0
    outer loop
      vertex -6 0 -1
      vertex -6 20 1
      vertex -6 20 -1
    endloop
  endfacet
  facet normal -1 -0 0
    outer loop
      vertex -6 20 1
      vertex -6 0 -1
      vertex -6 0 1
    endloop
  endfacet
  facet normal 0 0 1
    outer loop
      vertex 6 20 1
      vertex 2.93444 20.6237 1
      vertex 3 20 1
    endloop
  endfacet
  facet normal 0 0 1
    outer loop
      vertex 4.73484 23.6853 1
      vertex 2.74064 21.2202 1
      vertex 2.93444 20.6237 1
    endloop
  endfacet
  facet normal 0 0 1
    outer loop
      vertex 4.73484 23.6853 1
      vertex 2.42705 21.7634 1
      vertex 2.74064 21.2202 1
    endloop
  endfacet
  facet normal 0 0 1
    outer loop
      vertex 4.73484 23.6853 1
      vertex 2.00739 22.2294 1
      vertex 2.42705 21.7634 1
    endloop
  endfacet
  facet normal 0 0 1
    outer loop
      vertex 3.28169 25.023 1
      vertex 1.5 22.5981 1
      vertex 2.00739 22.2294 1
    endloop
  endfacet
  facet normal 0 0 1
    outer loop
      vertex 0.927051 22.8532 1
      vertex 3.28169 25.023 1
      vertex 1.47291 25.8164 1
    endloop
  endfacet
  facet normal 0 0 1
    outer loop
      vertex 3.28169 25.023 1
      vertex 0.927051 22.8532 1
      vertex 1.5 22.5981 1
    endloop
  endfacet
  facet normal 0 0 1
    outer loop
      vertex 1.47291 25.8164 1
      vertex 0.313585 22.9836 1
      vertex 0.927051 22.8532 1
    endloop
  endfacet
  facet normal 0 0 1
    outer loop
      vertex -0.495476 25.9795 1
      vertex 0.313585 22.9836 1
      vertex 1.47291 25.8164 1
    endloop
  endfacet
  facet normal 0 0 1
    outer loop
      vertex 0.313585 22.9836 1
      vertex -0.495476 25.9795 1
      vertex -0.313585 22.9836 1
    endloop
  endfacet
  facet normal 0 0 1
    outer loop
      vertex -0.495476 25.9795 1
      vertex -0.927051 22.8532 1
      vertex -0.313585 22.9836 1
    endloop
  endfacet
  facet normal -0 0 1
    outer loop
      vertex -2.41017 25.4946 1
      vertex -0.927051 22.8532 1
      vertex -0.495476 25.9795 1
    endloop
  endfacet
  facet normal 0 0 1
    outer loop
      vertex -0.927051 22.8532 1
      vertex -2.41017 25.4946 1
      vertex -1.5 22.5981 1
    endloop
  endfacet
  facet normal -0 0 1
    outer loop
      vertex -4.06369 24.4143 1
      vertex -1.5 22.5981 1
      vertex -2.41017 25.4946 1
    endloop
  endfacet
  facet normal 0 0 1
    outer loop
      vertex -1.5 22.5981 1
      vertex -4.06369 24.4143 1
      vertex -2.00739 22.2294 1
    endloop
  endfacet
  facet normal 0 0 1
    outer loop
      vertex -2.00739 22.2294 1
      vertex -4.06369 24.4143 1
      vertex -2.42705 21.7634 1
    endloop
  endfacet
  facet normal -0 0 1
    outer loop
      vertex -5.27684 22.8557 1
      vertex -2.42705 21.7634 1
      vertex -4.06369 24.4143 1
    endloop
  endfacet
  facet normal 0 0 1
    outer loop
      vertex -2.42705 21.7634 1
      vertex -5.27684 22.8557 1
      vertex -2.74064 21.2202 1
    endloop
  endfacet
  facet normal 0 0 1
    outer loop
      vertex -5.91817 20.9876 1
      vertex -2.74064 21.2202 1
      vertex -5.27684 22.8557 1
    endloop
  endfacet
  facet normal 0 0 1
    outer loop
      vertex -5.91817 20 1
      vertex -2.93444 20.6237 1
      vertex -5.91817 20.9876 1
    endloop
  endfacet
  facet normal 0 0 1
    outer loop
      vertex -2.93444 19.3763 1
      vertex -5.91817 20 1
      vertex -4 4.80109 1
    endloop
  endfacet
  facet normal 0 0 1
    outer loop
      vertex -2.93444 20.6237 1
      vertex -5.91817 20 1
      vertex -3 20 1
    endloop
  endfacet
  facet normal 0 0 1
    outer loop
      vertex -3 20 1
      vertex -5.91817 20 1
      vertex -2.93444 19.3763 1
    endloop
  endfacet
  facet normal -0 0 1
    outer loop
      vertex -6 20 1
      vertex -4 4.80109 1
      vertex -5.91817 20 1
    endloop
  endfacet
  facet normal 0 0 1
    outer loop
      vertex -4 4.80109 1
      vertex -6 20 1
      vertex -6 0 1
    endloop
  endfacet
  facet normal 0 0 1
    outer loop
      vertex -4 4.80109 1
      vertex -6 0 1
      vertex -4 0 1
    endloop
  endfacet
  facet normal -0 0 1
    outer loop
      vertex 2.93444 20.6237 1
      vertex 6 20 1
      vertex 5.6749 21.9482 1
    endloop
  endfacet
  facet normal 0 0 1
    outer loop
      vertex 2.93444 19.3763 1
      vertex 6 20 1
      vertex 3 20 1
    endloop
  endfacet
  facet normal 0 0 1
    outer loop
      vertex 2.74064 18.7798 1
      vertex 6 20 1
      vertex 2.93444 19.3763 1
    endloop
  endfacet
  facet normal 0 0 1
    outer loop
      vertex 2.42705 18.2366 1
      vertex 6 20 1
      vertex 2.74064 18.7798 1
    endloop
  endfacet
  facet normal 0 0 1
    outer loop
      vertex 2.00739 17.7706 1
      vertex 6 20 1
      vertex 2.42705 18.2366 1
    endloop
  endfacet
  facet normal 0 0 1
    outer loop
      vertex 6 20 1
      vertex 2.00739 17.7706 1
      vertex 4 4.80109 1
    endloop
  endfacet
  facet normal -0 0 1
    outer loop
      vertex 1.5 17.4019 1
      vertex 4 4.80109 1
      vertex 2.00739 17.7706 1
    endloop
  endfacet
  facet normal -0 0 1
    outer loop
      vertex 0.927051 17.1468 1
      vertex 4 4.80109 1
      vertex 1.5 17.4019 1
    endloop
  endfacet
  facet normal -0 0 1
    outer loop
      vertex 0.313585 17.0164 1
      vertex 4 4.80109 1
      vertex 0.927051 17.1468 1
    endloop
  endfacet
  facet normal -0 0 1
    outer loop
      vertex -0.313585 17.0164 1
      vertex 4 4.80109 1
      vertex 0.313585 17.0164 1
    endloop
  endfacet
  facet normal 0 0 1
    outer loop
      vertex -4 4.80109 1
      vertex -0.313585 17.0164 1
      vertex -0.927051 17.1468 1
    endloop
  endfacet
  facet normal 0 0 1
    outer loop
      vertex -4 4.80109 1
      vertex -0.927051 17.1468 1
      vertex -1.5 17.4019 1
    endloop
  endfacet
  facet normal 0 0 1
    outer loop
      vertex -4 4.80109 1
      vertex -1.5 17.4019 1
      vertex -2.00739 17.7706 1
    endloop
  endfacet
  facet normal 0 0 1
    outer loop
      vertex -4 4.80109 1
      vertex -2.00739 17.7706 1
      vertex -2.42705 18.2366 1
    endloop
  endfacet
  facet normal 0 0 1
    outer loop
      vertex -4 4.80109 1
      vertex -2.42705 18.2366 1
      vertex -2.74064 18.7798 1
    endloop
  endfacet
  facet normal 0 0 1
    outer loop
      vertex -0.313585 17.0164 1
      vertex -4 4.80109 1
      vertex 4 4.80109 1
    endloop
  endfacet
  facet normal 0 0 1
    outer loop
      vertex -2.93444 19.3763 1
      vertex -4 4.80109 1
      vertex -2.74064 18.7798 1
    endloop
  endfacet
  facet normal 0 0 1
    outer loop
      vertex -2.74064 21.2202 1
      vertex -5.91817 20.9876 1
      vertex -2.93444 20.6237 1
    endloop
  endfacet
  facet normal 0 0 1
    outer loop
      vertex 2.93444 20.6237 1
      vertex 5.6749 21.9482 1
      vertex 4.73484 23.6853 1
    endloop
  endfacet
  facet normal 0 0 1
    outer loop
      vertex 2.00739 22.2294 1
      vertex 4.73484 23.6853 1
      vertex 3.28169 25.023 1
    endloop
  endfacet
  facet normal 0 0 1
    outer loop
      vertex 6 20 1
      vertex 4 4.80109 1
      vertex 6 0 1
    endloop
  endfacet
  facet normal 0 0 1
    outer loop
      vertex 6 0 1
      vertex 4 4.80109 1
      vertex 4 0 1
    endloop
  endfacet
  facet normal 1 -0 0
    outer loop
      vertex 6 0 1
      vertex 6 20 -1
      vertex 6 20 1
    endloop
  endfacet
  facet normal 1 0 0
    outer loop
      vertex 6 20 -1
      vertex 6 0 1
      vertex 6 0 -1
    endloop
  endfacet
  facet normal 0 0 -1
    outer loop
      vertex -6 0 -1
      vertex -4 4.80109 -1
      vertex -4 0 -1
    endloop
  endfacet
  facet normal 0 0 -1
    outer loop
      vertex -4 4.80109 -1
      vertex -5.91817 20 -1
      vertex -4.06369 24.4143 -1
    endloop
  endfacet
  facet normal 0 0 -1
    outer loop
      vertex -4.06369 24.4143 -1
      vertex -5.91817 20 -1
      vertex -5.27684 22.8557 -1
    endloop
  endfacet
  facet normal 0 0 -1
    outer loop
      vertex -6 20 -1
      vertex -4 4.80109 -1
      vertex -6 0 -1
    endloop
  endfacet
  facet normal 0 0 -1
    outer loop
      vertex -4 4.80109 -1
      vertex -6 20 -1
      vertex -5.91817 20 -1
    endloop
  endfacet
  facet normal 0 0 -1
    outer loop
      vertex -5.27684 22.8557 -1
      vertex -5.91817 20 -1
      vertex -5.91817 20.9876 -1
    endloop
  endfacet
  facet normal 0 0 -1
    outer loop
      vertex 2.22045e-16 4.80109 -1
      vertex 6 20 -1
      vertex 6 0 -1
    endloop
  endfacet
  facet normal 0 -0 -1
    outer loop
      vertex 2.74064 18.7798 -1
      vertex 6 20 -1
      vertex 2.42705 18.2366 -1
    endloop
  endfacet
  facet normal 0 0 -1
    outer loop
      vertex 2.93444 20.6237 -1
      vertex 6 20 -1
      vertex 3 20 -1
    endloop
  endfacet
  facet normal 0 0 -1
    outer loop
      vertex 2.74064 21.2202 -1
      vertex 5.6749 21.9482 -1
      vertex 2.93444 20.6237 -1
    endloop
  endfacet
  facet normal 0 0 -1
    outer loop
      vertex 6 20 -1
      vertex 2.93444 20.6237 -1
      vertex 5.6749 21.9482 -1
    endloop
  endfacet
  facet normal 0 -0 -1
    outer loop
      vertex 3 20 -1
      vertex 6 20 -1
      vertex 2.93444 19.3763 -1
    endloop
  endfacet
  facet normal 0 -0 -1
    outer loop
      vertex 2.93444 19.3763 -1
      vertex 6 20 -1
      vertex 2.74064 18.7798 -1
    endloop
  endfacet
  facet normal 0 0 -1
    outer loop
      vertex 6 20 -1
      vertex 2.00739 17.7706 -1
      vertex 2.42705 18.2366 -1
    endloop
  endfacet
  facet normal 0 0 -1
    outer loop
      vertex 2.22045e-16 4.80109 -1
      vertex 6 0 -1
      vertex 1.5 0 -1
    endloop
  endfacet
  facet normal 0 0 -1
    outer loop
      vertex 6 20 -1
      vertex 2.22045e-16 4.80109 -1
      vertex 2.00739 17.7706 -1
    endloop
  endfacet
  facet normal 0 0 -1
    outer loop
      vertex 2.00739 17.7706 -1
      vertex 2.22045e-16 4.80109 -1
      vertex 1.5 17.4019 -1
    endloop
  endfacet
  facet normal 0 0 -1
    outer loop
      vertex 1.5 17.4019 -1
      vertex 2.22045e-16 4.80109 -1
      vertex 0.927051 17.1468 -1
    endloop
  endfacet
  facet normal 0 0 -1
    outer loop
      vertex 2.22045e-16 4.80109 -1
      vertex 1.5 0 -1
      vertex 2.22045e-16 0 -1
    endloop
  endfacet
  facet normal 0 0 -1
    outer loop
      vertex 0.927051 17.1468 -1
      vertex 2.22045e-16 4.80109 -1
      vertex 0.313585 17.0164 -1
    endloop
  endfacet
  facet normal 0 0 -1
    outer loop
      vertex 2.22045e-16 4.80109 -1
      vertex -0.313585 17.0164 -1
      vertex 0.313585 17.0164 -1
    endloop
  endfacet
  facet normal 0 0 -1
    outer loop
      vertex 2.22045e-16 4.80109 -1
      vertex -0.927051 17.1468 -1
      vertex -0.313585 17.0164 -1
    endloop
  endfacet
  facet normal 0 0 -1
    outer loop
      vertex -4 4.80109 -1
      vertex -0.927051 17.1468 -1
      vertex 2.22045e-16 4.80109 -1
    endloop
  endfacet
  facet normal -0 0 -1
    outer loop
      vertex -0.927051 17.1468 -1
      vertex -4 4.80109 -1
      vertex -1.5 17.4019 -1
    endloop
  endfacet
  facet normal -0 0 -1
    outer loop
      vertex -1.5 17.4019 -1
      vertex -4 4.80109 -1
      vertex -2.00739 17.7706 -1
    endloop
  endfacet
  facet normal -0 0 -1
    outer loop
      vertex -2.00739 17.7706 -1
      vertex -4 4.80109 -1
      vertex -2.42705 18.2366 -1
    endloop
  endfacet
  facet normal -0 0 -1
    outer loop
      vertex -2.42705 18.2366 -1
      vertex -4 4.80109 -1
      vertex -2.74064 18.7798 -1
    endloop
  endfacet
  facet normal 0 0 -1
    outer loop
      vertex -4.06369 24.4143 -1
      vertex -2.93444 19.3763 -1
      vertex -4 4.80109 -1
    endloop
  endfacet
  facet normal -0 0 -1
    outer loop
      vertex -2.74064 18.7798 -1
      vertex -4 4.80109 -1
      vertex -2.93444 19.3763 -1
    endloop
  endfacet
  facet normal -0 0 -1
    outer loop
      vertex 5.6749 21.9482 -1
      vertex 2.74064 21.2202 -1
      vertex 4.73484 23.6853 -1
    endloop
  endfacet
  facet normal 0 0 -1
    outer loop
      vertex 2.42705 21.7634 -1
      vertex 4.73484 23.6853 -1
      vertex 2.74064 21.2202 -1
    endloop
  endfacet
  facet normal 0 0 -1
    outer loop
      vertex 2.00739 22.2294 -1
      vertex 4.73484 23.6853 -1
      vertex 2.42705 21.7634 -1
    endloop
  endfacet
  facet normal -0 0 -1
    outer loop
      vertex 4.73484 23.6853 -1
      vertex 2.00739 22.2294 -1
      vertex 3.28169 25.023 -1
    endloop
  endfacet
  facet normal 0 0 -1
    outer loop
      vertex 1.5 22.5981 -1
      vertex 3.28169 25.023 -1
      vertex 2.00739 22.2294 -1
    endloop
  endfacet
  facet normal 0 0 -1
    outer loop
      vertex 0.927051 22.8532 -1
      vertex 3.28169 25.023 -1
      vertex 1.5 22.5981 -1
    endloop
  endfacet
  facet normal -0 0 -1
    outer loop
      vertex 3.28169 25.023 -1
      vertex 0.927051 22.8532 -1
      vertex 1.47291 25.8164 -1
    endloop
  endfacet
  facet normal 0 0 -1
    outer loop
      vertex 0.313585 22.9836 -1
      vertex 1.47291 25.8164 -1
      vertex 0.927051 22.8532 -1
    endloop
  endfacet
  facet normal 0 0 -1
    outer loop
      vertex -0.495476 25.9795 -1
      vertex 0.313585 22.9836 -1
      vertex -0.313585 22.9836 -1
    endloop
  endfacet
  facet normal 0 0 -1
    outer loop
      vertex 0.313585 22.9836 -1
      vertex -0.495476 25.9795 -1
      vertex 1.47291 25.8164 -1
    endloop
  endfacet
  facet normal 0 0 -1
    outer loop
      vertex -0.927051 22.8532 -1
      vertex -0.495476 25.9795 -1
      vertex -0.313585 22.9836 -1
    endloop
  endfacet
  facet normal 0 0 -1
    outer loop
      vertex -2.41017 25.4946 -1
      vertex -0.927051 22.8532 -1
      vertex -1.5 22.5981 -1
    endloop
  endfacet
  facet normal 0 0 -1
    outer loop
      vertex -4.06369 24.4143 -1
      vertex -1.5 22.5981 -1
      vertex -2.00739 22.2294 -1
    endloop
  endfacet
  facet normal 0 0 -1
    outer loop
      vertex -0.927051 22.8532 -1
      vertex -2.41017 25.4946 -1
      vertex -0.495476 25.9795 -1
    endloop
  endfacet
  facet normal 0 0 -1
    outer loop
      vertex -4.06369 24.4143 -1
      vertex -2.00739 22.2294 -1
      vertex -2.42705 21.7634 -1
    endloop
  endfacet
  facet normal 0 0 -1
    outer loop
      vertex -4.06369 24.4143 -1
      vertex -2.42705 21.7634 -1
      vertex -2.74064 21.2202 -1
    endloop
  endfacet
  facet normal 0 0 -1
    outer loop
      vertex -4.06369 24.4143 -1
      vertex -2.74064 21.2202 -1
      vertex -2.93444 20.6237 -1
    endloop
  endfacet
  facet normal 0 0 -1
    outer loop
      vertex -1.5 22.5981 -1
      vertex -4.06369 24.4143 -1
      vertex -2.41017 25.4946 -1
    endloop
  endfacet
  facet normal 0 0 -1
    outer loop
      vertex -3 20 -1
      vertex -4.06369 24.4143 -1
      vertex -2.93444 20.6237 -1
    endloop
  endfacet
  facet normal 0 0 -1
    outer loop
      vertex -2.93444 19.3763 -1
      vertex -4.06369 24.4143 -1
      vertex -3 20 -1
    endloop
  endfacet
  facet normal 0 -1 0
    outer loop
      vertex -4 0 1
      vertex 1.5 0 5
      vertex -4 0 5
    endloop
  endfacet
  facet normal 0 -1 -0
    outer loop
      vertex 1.5 0 5
      vertex -4 0 1
      vertex 1.5 0 1
    endloop
  endfacet
  facet normal 0 -1 0
    outer loop
      vertex 2.15 0 1
      vertex 4 0 5
      vertex 2.15 0 5
    endloop
  endfacet
  facet normal 0 -1 -0
    outer loop
      vertex 4 0 5
      vertex 2.15 0 1
      vertex 4 0 1
    endloop
  endfacet
  facet normal 0 -1 0
    outer loop
      vertex -4 0 -1
      vertex -4 0 1
      vertex -6 0 1
    endloop
  endfacet
  facet normal 0 -1 0
    outer loop
      vertex -4 0 -1
      vertex -6 0 1
      vertex -6 0 -1
    endloop
  endfacet
  facet normal 0 -1 0
    outer loop
      vertex 2.22045e-16 0 -1
      vertex -4 0 1
      vertex -4 0 -1
    endloop
  endfacet
  facet normal 0 -1 0
    outer loop
      vertex -4 0 1
      vertex 2.22045e-16 0 -1
      vertex 1.5 0 1
    endloop
  endfacet
  facet normal 0 -1 -0
    outer loop
      vertex 1.5 0 1
      vertex 2.22045e-16 0 -1
      vertex 1.5 0 -1
    endloop
  endfacet
  facet normal 0 -1 0
    outer loop
      vertex 2.15 0 -1
      vertex 4 0 1
      vertex 2.15 0 1
    endloop
  endfacet
  facet normal 0 -1 0
    outer loop
      vertex 6 0 -1
      vertex 4 0 1
      vertex 2.15 0 -1
    endloop
  endfacet
  facet normal 0 -1 0
    outer loop
      vertex 4 0 1
      vertex 6 0 -1
      vertex 6 0 1
    endloop
  endfacet
  facet normal 0 0 0
    outer loop
      vertex 6 0 -1
      vertex 2.15 0 -1
      vertex 1.5 0 -1
    endloop
  endfacet
  facet normal 0 1 -0
    outer loop
      vertex -5.91817 20 -1
      vertex -6 20 1
      vertex -5.91817 20 1
    endloop
  endfacet
  facet normal 0 1 0
    outer loop
      vertex -6 20 1
      vertex -5.91817 20 -1
      vertex -6 20 -1
    endloop
  endfacet
  facet normal 0.986361 0.164595 0
    outer loop
      vertex 6 20 1
      vertex 5.6749 21.9482 -1
      vertex 5.6749 21.9482 1
    endloop
  endfacet
  facet normal 0.986361 0.164595 0
    outer loop
      vertex 5.6749 21.9482 -1
      vertex 6 20 1
      vertex 6 20 -1
    endloop
  endfacet
  facet normal -1 0 0
    outer loop
      vertex -5.91817 20 -1
      vertex -5.91817 20.9876 1
      vertex -5.91817 20.9876 -1
    endloop
  endfacet
  facet normal -1 -0 0
    outer loop
      vertex -5.91817 20.9876 1
      vertex -5.91817 20 -1
      vertex -5.91817 20 1
    endloop
  endfacet
  facet normal -0.245486 0.9694 0
    outer loop
      vertex -0.495476 25.9795 -1
      vertex -2.41017 25.4946 1
      vertex -0.495476 25.9795 1
    endloop
  endfacet
  facet normal -0.245486 0.9694 0
    outer loop
      vertex -2.41017 25.4946 1
      vertex -0.495476 25.9795 -1
      vertex -2.41017 25.4946 -1
    endloop
  endfacet
  facet normal 0.677282 0.735724 -0
    outer loop
      vertex 4.73484 23.6853 -1
      vertex 3.28169 25.023 1
      vertex 4.73484 23.6853 1
    endloop
  endfacet
  facet normal 0.677282 0.735724 0
    outer loop
      vertex 3.28169 25.023 1
      vertex 4.73484 23.6853 -1
      vertex 3.28169 25.023 -1
    endloop
  endfacet
  facet normal 0.879474 0.475947 0
    outer loop
      vertex 5.6749 21.9482 1
      vertex 4.73484 23.6853 -1
      vertex 4.73484 23.6853 1
    endloop
  endfacet
  facet normal 0.879474 0.475947 0
    outer loop
      vertex 4.73484 23.6853 -1
      vertex 5.6749 21.9482 1
      vertex 5.6749 21.9482 -1
    endloop
  endfacet
  facet normal 0.401696 0.915773 -0
    outer loop
      vertex 3.28169 25.023 -1
      vertex 1.47291 25.8164 1
      vertex 3.28169 25.023 1
    endloop
  endfacet
  facet normal 0.401696 0.915773 0
    outer loop
      vertex 1.47291 25.8164 1
      vertex 3.28169 25.023 -1
      vertex 1.47291 25.8164 -1
    endloop
  endfacet
  facet normal -0.78914 0.614213 0
    outer loop
      vertex -5.27684 22.8557 -1
      vertex -4.06369 24.4143 1
      vertex -4.06369 24.4143 -1
    endloop
  endfacet
  facet normal -0.78914 0.614213 0
    outer loop
      vertex -4.06369 24.4143 1
      vertex -5.27684 22.8557 -1
      vertex -5.27684 22.8557 1
    endloop
  endfacet
  facet normal -0.945817 0.324699 0
    outer loop
      vertex -5.91817 20.9876 -1
      vertex -5.27684 22.8557 1
      vertex -5.27684 22.8557 -1
    endloop
  endfacet
  facet normal -0.945817 0.324699 0
    outer loop
      vertex -5.27684 22.8557 1
      vertex -5.91817 20.9876 -1
      vertex -5.91817 20.9876 1
    endloop
  endfacet
  facet normal -0.546949 0.837166 0
    outer loop
      vertex -2.41017 25.4946 -1
      vertex -4.06369 24.4143 1
      vertex -2.41017 25.4946 1
    endloop
  endfacet
  facet normal -0.546949 0.837166 0
    outer loop
      vertex -4.06369 24.4143 1
      vertex -2.41017 25.4946 -1
      vertex -4.06369 24.4143 -1
    endloop
  endfacet
  facet normal 0.0825792 0.996585 -0
    outer loop
      vertex 1.47291 25.8164 -1
      vertex -0.495476 25.9795 1
      vertex 1.47291 25.8164 1
    endloop
  endfacet
  facet normal 0.0825792 0.996585 0
    outer loop
      vertex -0.495476 25.9795 1
      vertex 1.47291 25.8164 -1
      vertex -0.495476 25.9795 -1
    endloop
  endfacet
  facet normal -0.994522 -0.104529 0
    outer loop
      vertex 3 20 -1
      vertex 2.93444 20.6237 1
      vertex 2.93444 20.6237 -1
    endloop
  endfacet
  facet normal -0.994522 -0.104529 0
    outer loop
      vertex 2.93444 20.6237 1
      vertex 3 20 -1
      vertex 3 20 1
    endloop
  endfacet
  facet normal 0.207914 -0.978147 0
    outer loop
      vertex -0.927051 22.8532 -1
      vertex -0.313585 22.9836 1
      vertex -0.927051 22.8532 1
    endloop
  endfacet
  facet normal 0.207914 -0.978147 0
    outer loop
      vertex -0.313585 22.9836 1
      vertex -0.927051 22.8532 -1
      vertex -0.313585 22.9836 -1
    endloop
  endfacet
  facet normal -0.207911 0.978148 0
    outer loop
      vertex 0.927051 17.1468 -1
      vertex 0.313585 17.0164 1
      vertex 0.927051 17.1468 1
    endloop
  endfacet
  facet normal -0.207911 0.978148 0
    outer loop
      vertex 0.313585 17.0164 1
      vertex 0.927051 17.1468 -1
      vertex 0.313585 17.0164 -1
    endloop
  endfacet
  facet normal -0.406738 0.913545 0
    outer loop
      vertex 1.5 17.4019 -1
      vertex 0.927051 17.1468 1
      vertex 1.5 17.4019 1
    endloop
  endfacet
  facet normal -0.406738 0.913545 0
    outer loop
      vertex 0.927051 17.1468 1
      vertex 1.5 17.4019 -1
      vertex 0.927051 17.1468 -1
    endloop
  endfacet
  facet normal -0.587785 -0.809017 0
    outer loop
      vertex 1.5 22.5981 -1
      vertex 2.00739 22.2294 1
      vertex 1.5 22.5981 1
    endloop
  endfacet
  facet normal -0.587785 -0.809017 -0
    outer loop
      vertex 2.00739 22.2294 1
      vertex 1.5 22.5981 -1
      vertex 2.00739 22.2294 -1
    endloop
  endfacet
  facet normal 0.743145 -0.66913 0
    outer loop
      vertex -2.42705 21.7634 1
      vertex -2.00739 22.2294 -1
      vertex -2.00739 22.2294 1
    endloop
  endfacet
  facet normal 0.743145 -0.66913 0
    outer loop
      vertex -2.00739 22.2294 -1
      vertex -2.42705 21.7634 1
      vertex -2.42705 21.7634 -1
    endloop
  endfacet
  facet normal 0.587784 -0.809018 0
    outer loop
      vertex -2.00739 22.2294 -1
      vertex -1.5 22.5981 1
      vertex -2.00739 22.2294 1
    endloop
  endfacet
  facet normal 0.587784 -0.809018 0
    outer loop
      vertex -1.5 22.5981 1
      vertex -2.00739 22.2294 -1
      vertex -1.5 22.5981 -1
    endloop
  endfacet
  facet normal -0.866026 -0.5 0
    outer loop
      vertex 2.74064 21.2202 -1
      vertex 2.42705 21.7634 1
      vertex 2.42705 21.7634 -1
    endloop
  endfacet
  facet normal -0.866026 -0.5 0
    outer loop
      vertex 2.42705 21.7634 1
      vertex 2.74064 21.2202 -1
      vertex 2.74064 21.2202 1
    endloop
  endfacet
  facet normal -0.951057 -0.309017 0
    outer loop
      vertex 2.93444 20.6237 -1
      vertex 2.74064 21.2202 1
      vertex 2.74064 21.2202 -1
    endloop
  endfacet
  facet normal -0.951057 -0.309017 0
    outer loop
      vertex 2.74064 21.2202 1
      vertex 2.93444 20.6237 -1
      vertex 2.93444 20.6237 1
    endloop
  endfacet
  facet normal -0.743145 -0.66913 0
    outer loop
      vertex 2.42705 21.7634 -1
      vertex 2.00739 22.2294 1
      vertex 2.00739 22.2294 -1
    endloop
  endfacet
  facet normal -0.743145 -0.66913 0
    outer loop
      vertex 2.00739 22.2294 1
      vertex 2.42705 21.7634 -1
      vertex 2.42705 21.7634 1
    endloop
  endfacet
  facet normal -0.207914 -0.978147 0
    outer loop
      vertex 0.313585 22.9836 -1
      vertex 0.927051 22.8532 1
      vertex 0.313585 22.9836 1
    endloop
  endfacet
  facet normal -0.207914 -0.978147 -0
    outer loop
      vertex 0.927051 22.8532 1
      vertex 0.313585 22.9836 -1
      vertex 0.927051 22.8532 -1
    endloop
  endfacet
  facet normal 0 -1 0
    outer loop
      vertex -0.313585 22.9836 -1
      vertex 0.313585 22.9836 1
      vertex -0.313585 22.9836 1
    endloop
  endfacet
  facet normal 0 -1 -0
    outer loop
      vertex 0.313585 22.9836 1
      vertex -0.313585 22.9836 -1
      vertex 0.313585 22.9836 -1
    endloop
  endfacet
  facet normal -0.406735 -0.913546 0
    outer loop
      vertex 0.927051 22.8532 -1
      vertex 1.5 22.5981 1
      vertex 0.927051 22.8532 1
    endloop
  endfacet
  facet normal -0.406735 -0.913546 -0
    outer loop
      vertex 1.5 22.5981 1
      vertex 0.927051 22.8532 -1
      vertex 1.5 22.5981 -1
    endloop
  endfacet
  facet normal 0.951057 -0.309017 0
    outer loop
      vertex -2.93444 20.6237 1
      vertex -2.74064 21.2202 -1
      vertex -2.74064 21.2202 1
    endloop
  endfacet
  facet normal 0.951057 -0.309017 0
    outer loop
      vertex -2.74064 21.2202 -1
      vertex -2.93444 20.6237 1
      vertex -2.93444 20.6237 -1
    endloop
  endfacet
  facet normal 0.866026 -0.5 0
    outer loop
      vertex -2.74064 21.2202 1
      vertex -2.42705 21.7634 -1
      vertex -2.42705 21.7634 1
    endloop
  endfacet
  facet normal 0.866026 -0.5 0
    outer loop
      vertex -2.42705 21.7634 -1
      vertex -2.74064 21.2202 1
      vertex -2.74064 21.2202 -1
    endloop
  endfacet
  facet normal 0.994522 -0.104529 0
    outer loop
      vertex -3 20 1
      vertex -2.93444 20.6237 -1
      vertex -2.93444 20.6237 1
    endloop
  endfacet
  facet normal 0.994522 -0.104529 0
    outer loop
      vertex -2.93444 20.6237 -1
      vertex -3 20 1
      vertex -3 20 -1
    endloop
  endfacet
  facet normal 0.406736 -0.913546 0
    outer loop
      vertex -1.5 22.5981 -1
      vertex -0.927051 22.8532 1
      vertex -1.5 22.5981 1
    endloop
  endfacet
  facet normal 0.406736 -0.913546 0
    outer loop
      vertex -0.927051 22.8532 1
      vertex -1.5 22.5981 -1
      vertex -0.927051 22.8532 -1
    endloop
  endfacet
  facet normal -0.994522 0.104529 0
    outer loop
      vertex 2.93444 19.3763 -1
      vertex 3 20 1
      vertex 3 20 -1
    endloop
  endfacet
  facet normal -0.994522 0.104529 0
    outer loop
      vertex 3 20 1
      vertex 2.93444 19.3763 -1
      vertex 2.93444 19.3763 1
    endloop
  endfacet
  facet normal 0.994522 0.104529 0
    outer loop
      vertex -2.93444 19.3763 1
      vertex -3 20 -1
      vertex -3 20 1
    endloop
  endfacet
  facet normal 0.994522 0.104529 0
    outer loop
      vertex -3 20 -1
      vertex -2.93444 19.3763 1
      vertex -2.93444 19.3763 -1
    endloop
  endfacet
  facet normal -0.866025 0.500001 0
    outer loop
      vertex 2.42705 18.2366 -1
      vertex 2.74064 18.7798 1
      vertex 2.74064 18.7798 -1
    endloop
  endfacet
  facet normal -0.866025 0.500001 0
    outer loop
      vertex 2.74064 18.7798 1
      vertex 2.42705 18.2366 -1
      vertex 2.42705 18.2366 1
    endloop
  endfacet
  facet normal 0.406738 0.913545 -0
    outer loop
      vertex -0.927051 17.1468 -1
      vertex -1.5 17.4019 1
      vertex -0.927051 17.1468 1
    endloop
  endfacet
  facet normal 0.406738 0.913545 0
    outer loop
      vertex -1.5 17.4019 1
      vertex -0.927051 17.1468 -1
      vertex -1.5 17.4019 -1
    endloop
  endfacet
  facet normal 0.743145 0.66913 0
    outer loop
      vertex -2.00739 17.7706 1
      vertex -2.42705 18.2366 -1
      vertex -2.42705 18.2366 1
    endloop
  endfacet
  facet normal 0.743145 0.66913 0
    outer loop
      vertex -2.42705 18.2366 -1
      vertex -2.00739 17.7706 1
      vertex -2.00739 17.7706 -1
    endloop
  endfacet
  facet normal 0.951057 0.309017 0
    outer loop
      vertex -2.74064 18.7798 1
      vertex -2.93444 19.3763 -1
      vertex -2.93444 19.3763 1
    endloop
  endfacet
  facet normal 0.951057 0.309017 0
    outer loop
      vertex -2.93444 19.3763 -1
      vertex -2.74064 18.7798 1
      vertex -2.74064 18.7798 -1
    endloop
  endfacet
  facet normal -0.587785 0.809017 0
    outer loop
      vertex 2.00739 17.7706 -1
      vertex 1.5 17.4019 1
      vertex 2.00739 17.7706 1
    endloop
  endfacet
  facet normal -0.587785 0.809017 0
    outer loop
      vertex 1.5 17.4019 1
      vertex 2.00739 17.7706 -1
      vertex 1.5 17.4019 -1
    endloop
  endfacet
  facet normal -0.951057 0.309017 0
    outer loop
      vertex 2.74064 18.7798 -1
      vertex 2.93444 19.3763 1
      vertex 2.93444 19.3763 -1
    endloop
  endfacet
  facet normal -0.951057 0.309017 0
    outer loop
      vertex 2.93444 19.3763 1
      vertex 2.74064 18.7798 -1
      vertex 2.74064 18.7798 1
    endloop
  endfacet
  facet normal 0.207911 0.978148 -0
    outer loop
      vertex -0.313585 17.0164 -1
      vertex -0.927051 17.1468 1
      vertex -0.313585 17.0164 1
    endloop
  endfacet
  facet normal 0.207911 0.978148 0
    outer loop
      vertex -0.927051 17.1468 1
      vertex -0.313585 17.0164 -1
      vertex -0.927051 17.1468 -1
    endloop
  endfacet
  facet normal 0.587785 0.809017 -0
    outer loop
      vertex -1.5 17.4019 -1
      vertex -2.00739 17.7706 1
      vertex -1.5 17.4019 1
    endloop
  endfacet
  facet normal 0.587785 0.809017 0
    outer loop
      vertex -2.00739 17.7706 1
      vertex -1.5 17.4019 -1
      vertex -2.00739 17.7706 -1
    endloop
  endfacet
  facet normal 0.866025 0.500001 0
    outer loop
      vertex -2.42705 18.2366 1
      vertex -2.74064 18.7798 -1
      vertex -2.74064 18.7798 1
    endloop
  endfacet
  facet normal 0.866025 0.500001 0
    outer loop
      vertex -2.74064 18.7798 -1
      vertex -2.42705 18.2366 1
      vertex -2.42705 18.2366 -1
    endloop
  endfacet
  facet normal -0.743145 0.66913 0
    outer loop
      vertex 2.00739 17.7706 -1
      vertex 2.42705 18.2366 1
      vertex 2.42705 18.2366 -1
    endloop
  endfacet
  facet normal -0.743145 0.66913 0
    outer loop
      vertex 2.42705 18.2366 1
      vertex 2.00739 17.7706 -1
      vertex 2.00739 17.7706 1
    endloop
  endfacet
  facet normal 0 1 -0
    outer loop
      vertex 0.313585 17.0164 -1
      vertex -0.313585 17.0164 1
      vertex 0.313585 17.0164 1
    endloop
  endfacet
  facet normal 0 1 0
    outer loop
      vertex -0.313585 17.0164 1
      vertex 0.313585 17.0164 -1
      vertex -0.313585 17.0164 -1
    endloop
  endfacet
  facet normal -0 0.195091 0.980785
    outer loop
      vertex -4 1.91342 4.6194
      vertex 4 9.53674e-07 5
      vertex 4 1.91342 4.6194
    endloop
  endfacet
  facet normal 0 0.195091 0.980785
    outer loop
      vertex 4 9.53674e-07 5
      vertex -4 1.91342 4.6194
      vertex -4 9.53674e-07 5
    endloop
  endfacet
  facet normal 0 0.980785 0.19509
    outer loop
      vertex 4 4.80109 1
      vertex -4 4.6194 1.91342
      vertex 4 4.6194 1.91342
    endloop
  endfacet
  facet normal 0 0.980785 0.19509
    outer loop
      vertex -4 4.6194 1.91342
      vertex 4 4.80109 1
      vertex -4 4.80109 1
    endloop
  endfacet
  facet normal 0 0.83147 0.55557
    outer loop
      vertex 4 4.6194 1.91342
      vertex -4 3.53553 3.53553
      vertex 4 3.53553 3.53553
    endloop
  endfacet
  facet normal 0 0.83147 0.55557
    outer loop
      vertex -4 3.53553 3.53553
      vertex 4 4.6194 1.91342
      vertex -4 4.6194 1.91342
    endloop
  endfacet
  facet normal -1 0 0
    outer loop
      vertex -4 0 1
      vertex -4 4.6194 1.91342
      vertex -4 4.80109 1
    endloop
  endfacet
  facet normal -1 -0 0
    outer loop
      vertex -4 4.6194 1.91342
      vertex -4 0 1
      vertex -4 3.53553 3.53553
    endloop
  endfacet
  facet normal -1 -0 0
    outer loop
      vertex -4 3.53553 3.53553
      vertex -4 0 1
      vertex -4 1.91342 4.6194
    endloop
  endfacet
  facet normal -1 -0 0
    outer loop
      vertex -4 1.91342 4.6194
      vertex -4 0 1
      vertex -4 9.53674e-07 5
    endloop
  endfacet
  facet normal -1 -0 0
    outer loop
      vertex -4 9.53674e-07 5
      vertex -4 0 1
      vertex -4 0 5
    endloop
  endfacet
  facet normal -0 0.55557 0.83147
    outer loop
      vertex -4 3.53553 3.53553
      vertex 4 1.91342 4.6194
      vertex 4 3.53553 3.53553
    endloop
  endfacet
  facet normal 0 0.55557 0.83147
    outer loop
      vertex 4 1.91342 4.6194
      vertex -4 3.53553 3.53553
      vertex -4 1.91342 4.6194
    endloop
  endfacet
  facet normal 1 0 0
    outer loop
      vertex 4 0 1
      vertex 4 4.6194 1.91342
      vertex 4 3.53553 3.53553
    endloop
  endfacet
  facet normal 1 0 0
    outer loop
      vertex 4 0 1
      vertex 4 3.53553 3.53553
      vertex 4 1.91342 4.6194
    endloop
  endfacet
  facet normal 1 0 0
    outer loop
      vertex 4 0 1
      vertex 4 1.91342 4.6194
      vertex 4 9.53674e-07 5
    endloop
  endfacet
  facet normal 1 0 0
    outer loop
      vertex 4 0 1
      vertex 4 9.53674e-07 5
      vertex 4 0 5
    endloop
  endfacet
  facet normal 1 0 0
    outer loop
      vertex 4 4.6194 1.91342
      vertex 4 0 1
      vertex 4 4.80109 1
    endloop
  endfacet
  facet normal 0 0 1
    outer loop
      vertex 4 9.53674e-07 5
      vertex 2.15 7.9602e-17 5
      vertex 4 0 5
    endloop
  endfacet
  facet normal 0 0 1
    outer loop
      vertex 4 9.53674e-07 5
      vertex 1.5 0 5
      vertex 2.15 7.9602e-17 5
    endloop
  endfacet
  facet normal -0 0 1
    outer loop
      vertex -4 9.53674e-07 5
      vertex 1.5 0 5
      vertex 4 9.53674e-07 5
    endloop
  endfacet
  facet normal 0 0 1
    outer loop
      vertex 1.5 0 5
      vertex -4 9.53674e-07 5
      vertex -4 0 5
    endloop
  endfacet
  facet normal 0 0 1
    outer loop
      vertex 4 0 5
      vertex 2.15 7.9602e-17 5
      vertex 2.15 0 5
    endloop
  endfacet
  facet normal 0 0 -1
    outer loop
      vertex -4 0 -1
      vertex 2.22045e-16 4.80109 -1
      vertex 2.22045e-16 0 -1
    endloop
  endfacet
  facet normal -0 0 -1
    outer loop
      vertex 2.22045e-16 4.80109 -1
      vertex -4 0 -1
      vertex -4 4.80109 -1
    endloop
  endfacet
  facet normal -0 0 1
    outer loop
      vertex 0.85 -7.9602e-17 5
      vertex 2.15 -6 5
      vertex 2.15 7.9602e-17 5
    endloop
  endfacet
  facet normal 0 0 1
    outer loop
      vertex 2.15 -6 5
      vertex 0.85 -7.9602e-17 5
      vertex 0.85 -6 5
    endloop
  endfacet
  facet normal -1 0 0
    outer loop
      vertex 0.85 -7.9602e-17 -1
      vertex 0.85 -4.01096 2.20906
      vertex 0.85 -7.9602e-17 5
    endloop
  endfacet
  facet normal -1 0 0
    outer loop
      vertex 0.85 -7.9602e-17 -1
      vertex 0.85 -4.09789 1.38197
      vertex 0.85 -4.01096 2.20906
    endloop
  endfacet
  facet normal -1 0 0
    outer loop
      vertex 0.85 -7.9602e-17 -1
      vertex 0.85 -4.51371 0.661739
      vertex 0.85 -4.09789 1.38197
    endloop
  endfacet
  facet normal -1 0 0
    outer loop
      vertex 0.85 -7.9602e-17 -1
      vertex 0.85 -5.18653 0.17291
      vertex 0.85 -4.51371 0.661739
    endloop
  endfacet
  facet normal -1 0 0
    outer loop
      vertex 0.85 -6 -1
      vertex 0.85 -5.18653 0.17291
      vertex 0.85 -7.9602e-17 -1
    endloop
  endfacet
  facet normal -1 0 0
    outer loop
      vertex 0.85 -6 -1
      vertex 0.85 -6 -1.44329e-16
      vertex 0.85 -5.18653 0.17291
    endloop
  endfacet
  facet normal -1 0 0
    outer loop
      vertex 0.85 -6 -1
      vertex 0.85 -6.81347 0.17291
      vertex 0.85 -6 -1.44329e-16
    endloop
  endfacet
  facet normal -1 0 0
    outer loop
      vertex 0.85 -7.76336 -0.427051
      vertex 0.85 -6.81347 0.17291
      vertex 0.85 -6 -1
    endloop
  endfacet
  facet normal -1 -0 0
    outer loop
      vertex 0.85 -6.81347 0.17291
      vertex 0.85 -7.76336 -0.427051
      vertex 0.85 -7.48629 0.661739
    endloop
  endfacet
  facet normal -1 0 0
    outer loop
      vertex 0.85 -8.85317 1.07295
      vertex 0.85 -7.48629 0.661739
      vertex 0.85 -7.76336 -0.427051
    endloop
  endfacet
  facet normal -1 0 0
    outer loop
      vertex 0.85 -7.48629 0.661739
      vertex 0.85 -8.85317 1.07295
      vertex 0.85 -7.90211 1.38197
    endloop
  endfacet
  facet normal -1 -0 0
    outer loop
      vertex 0.85 -7.90211 1.38197
      vertex 0.85 -8.85317 1.07295
      vertex 0.85 -7.98904 2.20906
    endloop
  endfacet
  facet normal -1 0 0
    outer loop
      vertex 0.85 -4.26795 3
      vertex 0.85 -7.9602e-17 5
      vertex 0.85 -4.01096 2.20906
    endloop
  endfacet
  facet normal -1 0 0
    outer loop
      vertex 0.85 -4.82443 3.61803
      vertex 0.85 -7.9602e-17 5
      vertex 0.85 -4.26795 3
    endloop
  endfacet
  facet normal -1 0 0
    outer loop
      vertex 0.85 -6 5
      vertex 0.85 -4.82443 3.61803
      vertex 0.85 -5.58418 3.9563
    endloop
  endfacet
  facet normal -1 0 0
    outer loop
      vertex 0.85 -4.82443 3.61803
      vertex 0.85 -6 5
      vertex 0.85 -7.9602e-17 5
    endloop
  endfacet
  facet normal -1 0 0
    outer loop
      vertex 0.85 -6.41582 3.9563
      vertex 0.85 -6 5
      vertex 0.85 -5.58418 3.9563
    endloop
  endfacet
  facet normal -1 0 0
    outer loop
      vertex 0.85 -7.76336 4.42705
      vertex 0.85 -6.41582 3.9563
      vertex 0.85 -7.17557 3.61803
    endloop
  endfacet
  facet normal -1 0 0
    outer loop
      vertex 0.85 -7.76336 4.42705
      vertex 0.85 -7.17557 3.61803
      vertex 0.85 -7.73205 3
    endloop
  endfacet
  facet normal -1 0 0
    outer loop
      vertex 0.85 -6.41582 3.9563
      vertex 0.85 -7.76336 4.42705
      vertex 0.85 -6 5
    endloop
  endfacet
  facet normal -1 0 0
    outer loop
      vertex 0.85 -8.85317 2.92705
      vertex 0.85 -7.73205 3
      vertex 0.85 -7.98904 2.20906
    endloop
  endfacet
  facet normal -1 0 0
    outer loop
      vertex 0.85 -8.85317 2.92705
      vertex 0.85 -7.98904 2.20906
      vertex 0.85 -8.85317 1.07295
    endloop
  endfacet
  facet normal -1 -0 0
    outer loop
      vertex 0.85 -7.73205 3
      vertex 0.85 -8.85317 2.92705
      vertex 0.85 -7.76336 4.42705
    endloop
  endfacet
  facet normal 0 0 -1
    outer loop
      vertex 2.15 -6 -1
      vertex 1.5 0 -1
      vertex 2.15 0 -1
    endloop
  endfacet
  facet normal 0 0 -1
    outer loop
      vertex 0.85 -6 -1
      vertex 1.5 0 -1
      vertex 2.15 -6 -1
    endloop
  endfacet
  facet normal 0 0 0
    outer loop
      vertex 0.85 -6 -1
      vertex 1.5 4.07889e-32 -1
      vertex 1.5 0 -1
    endloop
  endfacet
  facet normal 0 0 -1
    outer loop
      vertex 1.5 4.07889e-32 -1
      vertex 0.85 -6 -1
      vertex 0.85 -7.9602e-17 -1
    endloop
  endfacet
  facet normal 1 -0 0
    outer loop
      vertex 2.15 -4.01096 2.20906
      vertex 2.15 0 1
      vertex 2.15 0 5
    endloop
  endfacet
  facet normal 1 -0 0
    outer loop
      vertex 2.15 -4.09789 1.38197
      vertex 2.15 0 1
      vertex 2.15 -4.01096 2.20906
    endloop
  endfacet
  facet normal 1 0 0
    outer loop
      vertex 2.15 0 5
      vertex 2.15 -4.26795 3
      vertex 2.15 -4.01096 2.20906
    endloop
  endfacet
  facet normal 1 0 0
    outer loop
      vertex 2.15 0 5
      vertex 2.15 -4.82443 3.61803
      vertex 2.15 -4.26795 3
    endloop
  endfacet
  facet normal 1 -0 0
    outer loop
      vertex 2.15 -6 5
      vertex 2.15 -4.82443 3.61803
      vertex 2.15 0 5
    endloop
  endfacet
  facet normal 1 0 0
    outer loop
      vertex 2.15 -4.82443 3.61803
      vertex 2.15 -6 5
      vertex 2.15 -5.58418 3.9563
    endloop
  endfacet
  facet normal 1 0 0
    outer loop
      vertex 2.15 -6 5
      vertex 2.15 -6.41582 3.9563
      vertex 2.15 -5.58418 3.9563
    endloop
  endfacet
  facet normal 1 -0 0
    outer loop
      vertex 2.15 -7.76336 4.42705
      vertex 2.15 -6.41582 3.9563
      vertex 2.15 -6 5
    endloop
  endfacet
  facet normal 1 0 0
    outer loop
      vertex 2.15 -6.41582 3.9563
      vertex 2.15 -7.76336 4.42705
      vertex 2.15 -7.17557 3.61803
    endloop
  endfacet
  facet normal 1 0 0
    outer loop
      vertex 2.15 -7.17557 3.61803
      vertex 2.15 -7.76336 4.42705
      vertex 2.15 -7.73205 3
    endloop
  endfacet
  facet normal 1 0 0
    outer loop
      vertex 2.15 -8.85317 2.92705
      vertex 2.15 -7.73205 3
      vertex 2.15 -7.76336 4.42705
    endloop
  endfacet
  facet normal 1 0 0
    outer loop
      vertex 2.15 -7.73205 3
      vertex 2.15 -8.85317 2.92705
      vertex 2.15 -7.98904 2.20906
    endloop
  endfacet
  facet normal 1 0 0
    outer loop
      vertex 2.15 0 1
      vertex 2.15 -4.09789 1.38197
      vertex 2.15 0 -1
    endloop
  endfacet
  facet normal 1 -0 0
    outer loop
      vertex 2.15 -4.51371 0.661739
      vertex 2.15 0 -1
      vertex 2.15 -4.09789 1.38197
    endloop
  endfacet
  facet normal 1 -0 0
    outer loop
      vertex 2.15 -5.18653 0.17291
      vertex 2.15 0 -1
      vertex 2.15 -4.51371 0.661739
    endloop
  endfacet
  facet normal 1 0 0
    outer loop
      vertex 2.15 -6 -1
      vertex 2.15 -5.18653 0.17291
      vertex 2.15 -6 1.44329e-16
    endloop
  endfacet
  facet normal 1 0 0
    outer loop
      vertex 2.15 -5.18653 0.17291
      vertex 2.15 -6 -1
      vertex 2.15 0 -1
    endloop
  endfacet
  facet normal 1 0 0
    outer loop
      vertex 2.15 -6.81347 0.17291
      vertex 2.15 -6 -1
      vertex 2.15 -6 1.44329e-16
    endloop
  endfacet
  facet normal 1 0 0
    outer loop
      vertex 2.15 -7.76336 -0.427051
      vertex 2.15 -6.81347 0.17291
      vertex 2.15 -7.48629 0.661739
    endloop
  endfacet
  facet normal 1 0 0
    outer loop
      vertex 2.15 -6.81347 0.17291
      vertex 2.15 -7.76336 -0.427051
      vertex 2.15 -6 -1
    endloop
  endfacet
  facet normal 1 -0 0
    outer loop
      vertex 2.15 -8.85317 1.07295
      vertex 2.15 -7.48629 0.661739
      vertex 2.15 -7.90211 1.38197
    endloop
  endfacet
  facet normal 1 0 0
    outer loop
      vertex 2.15 -8.85317 1.07295
      vertex 2.15 -7.90211 1.38197
      vertex 2.15 -7.98904 2.20906
    endloop
  endfacet
  facet normal 1 0 0
    outer loop
      vertex 2.15 -8.85317 1.07295
      vertex 2.15 -7.98904 2.20906
      vertex 2.15 -8.85317 2.92705
    endloop
  endfacet
  facet normal 1 0 0
    outer loop
      vertex 2.15 -7.48629 0.661739
      vertex 2.15 -8.85317 1.07295
      vertex 2.15 -7.76336 -0.427051
    endloop
  endfacet
  facet normal 0 0 0
    outer loop
      vertex 2.15 0 5
      vertex 2.15 7.9602e-17 5
      vertex 2.15 -6 5
    endloop
  endfacet
  facet normal -1.22465e-16 1 0
    outer loop
      vertex 1.5 0 1
      vertex 0.85 -7.9602e-17 5
      vertex 1.5 0 5
    endloop
  endfacet
  facet normal -1.22465e-16 1 0
    outer loop
      vertex 0.85 -7.9602e-17 -1
      vertex 1.5 0 1
      vertex 1.5 0 -1
    endloop
  endfacet
  facet normal -1.22465e-16 1 0
    outer loop
      vertex 1.5 0 1
      vertex 0.85 -7.9602e-17 -1
      vertex 0.85 -7.9602e-17 5
    endloop
  endfacet
  facet normal 0 0 0
    outer loop
      vertex 0.85 -7.9602e-17 5
      vertex 2.15 7.9602e-17 5
      vertex 1.5 0 5
    endloop
  endfacet
  facet normal 0 0 1
    outer loop
      vertex 0.85 -7.9602e-17 -1
      vertex 1.5 0 -1
      vertex 1.5 4.07889e-32 -1
    endloop
  endfacet
  facet normal 0 -0.309017 -0.951056
    outer loop
      vertex 0.85 -7.76336 -0.427051
      vertex 2.15 -6 -1
      vertex 2.15 -7.76336 -0.427051
    endloop
  endfacet
  facet normal -0 -0.309017 -0.951056
    outer loop
      vertex 2.15 -6 -1
      vertex 0.85 -7.76336 -0.427051
      vertex 0.85 -6 -1
    endloop
  endfacet
  facet normal 0 -1 0
    outer loop
      vertex 0.85 -8.85317 1.07295
      vertex 2.15 -8.85317 2.92705
      vertex 0.85 -8.85317 2.92705
    endloop
  endfacet
  facet normal 0 -1 -0
    outer loop
      vertex 2.15 -8.85317 2.92705
      vertex 0.85 -8.85317 1.07295
      vertex 2.15 -8.85317 1.07295
    endloop
  endfacet
  facet normal 0 -0.809017 -0.587785
    outer loop
      vertex 0.85 -7.76336 -0.427051
      vertex 2.15 -8.85317 1.07295
      vertex 0.85 -8.85317 1.07295
    endloop
  endfacet
  facet normal 0 -0.809017 -0.587785
    outer loop
      vertex 2.15 -8.85317 1.07295
      vertex 0.85 -7.76336 -0.427051
      vertex 2.15 -7.76336 -0.427051
    endloop
  endfacet
  facet normal 0 -0.309017 0.951056
    outer loop
      vertex 0.85 -6 5
      vertex 2.15 -7.76336 4.42705
      vertex 2.15 -6 5
    endloop
  endfacet
  facet normal 0 -0.309017 0.951056
    outer loop
      vertex 2.15 -7.76336 4.42705
      vertex 0.85 -6 5
      vertex 0.85 -7.76336 4.42705
    endloop
  endfacet
  facet normal 0 -0.809017 0.587785
    outer loop
      vertex 0.85 -8.85317 2.92705
      vertex 2.15 -7.76336 4.42705
      vertex 0.85 -7.76336 4.42705
    endloop
  endfacet
  facet normal 0 -0.809017 0.587785
    outer loop
      vertex 2.15 -7.76336 4.42705
      vertex 0.85 -8.85317 2.92705
      vertex 2.15 -8.85317 2.92705
    endloop
  endfacet
  facet normal -2.17192e-16 0.207913 0.978147
    outer loop
      vertex 0.85 -6 -1.44329e-16
      vertex 2.15 -6.81347 0.17291
      vertex 2.15 -6 1.44329e-16
    endloop
  endfacet
  facet normal 0 0.207913 0.978147
    outer loop
      vertex 2.15 -6.81347 0.17291
      vertex 0.85 -6 -1.44329e-16
      vertex 0.85 -6.81347 0.17291
    endloop
  endfacet
  facet normal 0 0 -1
    outer loop
      vertex 0.85 -6.41582 3.9563
      vertex 2.15 -5.58418 3.9563
      vertex 2.15 -6.41582 3.9563
    endloop
  endfacet
  facet normal -0 0 -1
    outer loop
      vertex 2.15 -5.58418 3.9563
      vertex 0.85 -6.41582 3.9563
      vertex 0.85 -5.58418 3.9563
    endloop
  endfacet
  facet normal 0 0.994522 0.104528
    outer loop
      vertex 2.15 -7.90211 1.38197
      vertex 0.85 -7.98904 2.20906
      vertex 2.15 -7.98904 2.20906
    endloop
  endfacet
  facet normal 0 0.994522 0.104528
    outer loop
      vertex 0.85 -7.98904 2.20906
      vertex 2.15 -7.90211 1.38197
      vertex 0.85 -7.90211 1.38197
    endloop
  endfacet
  facet normal 0 -0.994522 0.104528
    outer loop
      vertex 0.85 -4.09789 1.38197
      vertex 2.15 -4.01096 2.20906
      vertex 0.85 -4.01096 2.20906
    endloop
  endfacet
  facet normal 0 -0.994522 0.104528
    outer loop
      vertex 2.15 -4.01096 2.20906
      vertex 0.85 -4.09789 1.38197
      vertex 2.15 -4.09789 1.38197
    endloop
  endfacet
  facet normal 0 -0.866025 0.5
    outer loop
      vertex 0.85 -4.51371 0.661739
      vertex 2.15 -4.09789 1.38197
      vertex 0.85 -4.09789 1.38197
    endloop
  endfacet
  facet normal 0 -0.866025 0.5
    outer loop
      vertex 2.15 -4.09789 1.38197
      vertex 0.85 -4.51371 0.661739
      vertex 2.15 -4.51371 0.661739
    endloop
  endfacet
  facet normal 0 0.866025 0.5
    outer loop
      vertex 2.15 -7.48629 0.661739
      vertex 0.85 -7.90211 1.38197
      vertex 2.15 -7.90211 1.38197
    endloop
  endfacet
  facet normal 0 0.866025 0.5
    outer loop
      vertex 0.85 -7.90211 1.38197
      vertex 2.15 -7.48629 0.661739
      vertex 0.85 -7.48629 0.661739
    endloop
  endfacet
  facet normal -0 0.587785 0.809017
    outer loop
      vertex 0.85 -6.81347 0.17291
      vertex 2.15 -7.48629 0.661739
      vertex 2.15 -6.81347 0.17291
    endloop
  endfacet
  facet normal 0 0.587785 0.809017
    outer loop
      vertex 2.15 -7.48629 0.661739
      vertex 0.85 -6.81347 0.17291
      vertex 0.85 -7.48629 0.661739
    endloop
  endfacet
  facet normal 0 0.743146 -0.66913
    outer loop
      vertex 2.15 -7.73205 3
      vertex 0.85 -7.17557 3.61803
      vertex 2.15 -7.17557 3.61803
    endloop
  endfacet
  facet normal 0 0.743146 -0.66913
    outer loop
      vertex 0.85 -7.17557 3.61803
      vertex 2.15 -7.73205 3
      vertex 0.85 -7.73205 3
    endloop
  endfacet
  facet normal 0 0.406737 -0.913545
    outer loop
      vertex 0.85 -7.17557 3.61803
      vertex 2.15 -6.41582 3.9563
      vertex 2.15 -7.17557 3.61803
    endloop
  endfacet
  facet normal 0 0.406737 -0.913545
    outer loop
      vertex 2.15 -6.41582 3.9563
      vertex 0.85 -7.17557 3.61803
      vertex 0.85 -6.41582 3.9563
    endloop
  endfacet
  facet normal 0 0.951056 -0.309018
    outer loop
      vertex 2.15 -7.98904 2.20906
      vertex 0.85 -7.73205 3
      vertex 2.15 -7.73205 3
    endloop
  endfacet
  facet normal 0 0.951056 -0.309018
    outer loop
      vertex 0.85 -7.73205 3
      vertex 2.15 -7.98904 2.20906
      vertex 0.85 -7.98904 2.20906
    endloop
  endfacet
  facet normal 0 -0.951056 -0.309017
    outer loop
      vertex 0.85 -4.01096 2.20906
      vertex 2.15 -4.26795 3
      vertex 0.85 -4.26795 3
    endloop
  endfacet
  facet normal 0 -0.951056 -0.309017
    outer loop
      vertex 2.15 -4.26795 3
      vertex 0.85 -4.01096 2.20906
      vertex 2.15 -4.01096 2.20906
    endloop
  endfacet
  facet normal 0 -0.406737 -0.913545
    outer loop
      vertex 0.85 -5.58418 3.9563
      vertex 2.15 -4.82443 3.61803
      vertex 2.15 -5.58418 3.9563
    endloop
  endfacet
  facet normal -0 -0.406737 -0.913545
    outer loop
      vertex 2.15 -4.82443 3.61803
      vertex 0.85 -5.58418 3.9563
      vertex 0.85 -4.82443 3.61803
    endloop
  endfacet
  facet normal 0 -0.587785 0.809017
    outer loop
      vertex 0.85 -4.51371 0.661739
      vertex 2.15 -5.18653 0.17291
      vertex 2.15 -4.51371 0.661739
    endloop
  endfacet
  facet normal 0 -0.587785 0.809017
    outer loop
      vertex 2.15 -5.18653 0.17291
      vertex 0.85 -4.51371 0.661739
      vertex 0.85 -5.18653 0.17291
    endloop
  endfacet
  facet normal 0 -0.207912 0.978147
    outer loop
      vertex 0.85 -5.18653 0.17291
      vertex 2.15 -6 1.44329e-16
      vertex 2.15 -5.18653 0.17291
    endloop
  endfacet
  facet normal -2.17192e-16 -0.207912 0.978147
    outer loop
      vertex 2.15 -6 1.44329e-16
      vertex 0.85 -5.18653 0.17291
      vertex 0.85 -6 -1.44329e-16
    endloop
  endfacet
  facet normal 0 -0.743145 -0.66913
    outer loop
      vertex 0.85 -4.26795 3
      vertex 2.15 -4.82443 3.61803
      vertex 0.85 -4.82443 3.61803
    endloop
  endfacet
  facet normal 0 -0.743145 -0.66913
    outer loop
      vertex 2.15 -4.82443 3.61803
      vertex 0.85 -4.26795 3
      vertex 2.15 -4.26795 3
    endloop
  endfacet
  facet normal -0 0 1
    outer loop
      vertex -2.15 -4.46996e-16 5
      vertex -0.85 -6 5
      vertex -0.85 -2.87792e-16 5
    endloop
  endfacet
  facet normal 0 0 1
    outer loop
      vertex -0.85 -6 5
      vertex -2.15 -4.46996e-16 5
      vertex -2.15 -6 5
    endloop
  endfacet
  facet normal -1 0 0
    outer loop
      vertex -2.15 -4.46996e-16 -1
      vertex -2.15 -4.01096 2.20906
      vertex -2.15 -4.46996e-16 5
    endloop
  endfacet
  facet normal -1 0 0
    outer loop
      vertex -2.15 -4.46996e-16 -1
      vertex -2.15 -4.09789 1.38197
      vertex -2.15 -4.01096 2.20906
    endloop
  endfacet
  facet normal -1 0 0
    outer loop
      vertex -2.15 -4.46996e-16 -1
      vertex -2.15 -4.51371 0.661739
      vertex -2.15 -4.09789 1.38197
    endloop
  endfacet
  facet normal -1 0 0
    outer loop
      vertex -2.15 -4.46996e-16 -1
      vertex -2.15 -5.18653 0.17291
      vertex -2.15 -4.51371 0.661739
    endloop
  endfacet
  facet normal -1 0 0
    outer loop
      vertex -2.15 -6 -1
      vertex -2.15 -5.18653 0.17291
      vertex -2.15 -4.46996e-16 -1
    endloop
  endfacet
  facet normal -1 0 0
    outer loop
      vertex -2.15 -6 -1
      vertex -2.15 -6 -8.10463e-16
      vertex -2.15 -5.18653 0.17291
    endloop
  endfacet
  facet normal -1 0 0
    outer loop
      vertex -2.15 -6 -1
      vertex -2.15 -6.81347 0.17291
      vertex -2.15 -6 -8.10463e-16
    endloop
  endfacet
  facet normal -1 0 0
    outer loop
      vertex -2.15 -7.76336 -0.427051
      vertex -2.15 -6.81347 0.17291
      vertex -2.15 -6 -1
    endloop
  endfacet
  facet normal -1 -0 0
    outer loop
      vertex -2.15 -6.81347 0.17291
      vertex -2.15 -7.76336 -0.427051
      vertex -2.15 -7.48629 0.661739
    endloop
  endfacet
  facet normal -1 0 0
    outer loop
      vertex -2.15 -8.85317 1.07295
      vertex -2.15 -7.48629 0.661739
      vertex -2.15 -7.76336 -0.427051
    endloop
  endfacet
  facet normal -1 0 0
    outer loop
      vertex -2.15 -7.48629 0.661739
      vertex -2.15 -8.85317 1.07295
      vertex -2.15 -7.90211 1.38197
    endloop
  endfacet
  facet normal -1 -0 0
    outer loop
      vertex -2.15 -7.90211 1.38197
      vertex -2.15 -8.85317 1.07295
      vertex -2.15 -7.98904 2.20906
    endloop
  endfacet
  facet normal -1 0 0
    outer loop
      vertex -2.15 -4.26795 3
      vertex -2.15 -4.46996e-16 5
      vertex -2.15 -4.01096 2.20906
    endloop
  endfacet
  facet normal -1 0 0
    outer loop
      vertex -2.15 -4.82443 3.61803
      vertex -2.15 -4.46996e-16 5
      vertex -2.15 -4.26795 3
    endloop
  endfacet
  facet normal -1 0 0
    outer loop
      vertex -2.15 -6 5
      vertex -2.15 -4.82443 3.61803
      vertex -2.15 -5.58418 3.9563
    endloop
  endfacet
  facet normal -1 0 0
    outer loop
      vertex -2.15 -4.82443 3.61803
      vertex -2.15 -6 5
      vertex -2.15 -4.46996e-16 5
    endloop
  endfacet
  facet normal -1 0 0
    outer loop
      vertex -2.15 -6.41582 3.9563
      vertex -2.15 -6 5
      vertex -2.15 -5.58418 3.9563
    endloop
  endfacet
  facet normal -1 0 0
    outer loop
      vertex -2.15 -7.76336 4.42705
      vertex -2.15 -6.41582 3.9563
      vertex -2.15 -7.17557 3.61803
    endloop
  endfacet
  facet normal -1 0 0
    outer loop
      vertex -2.15 -7.76336 4.42705
      vertex -2.15 -7.17557 3.61803
      vertex -2.15 -7.73205 3
    endloop
  endfacet
  facet normal -1 0 0
    outer loop
      vertex -2.15 -6.41582 3.9563
      vertex -2.15 -7.76336 4.42705
      vertex -2.15 -6 5
    endloop
  endfacet
  facet normal -1 0 0
    outer loop
      vertex -2.15 -8.85317 2.92705
      vertex -2.15 -7.73205 3
      vertex -2.15 -7.98904 2.20906
    endloop
  endfacet
  facet normal -1 0 0
    outer loop
      vertex -2.15 -8.85317 2.92705
      vertex -2.15 -7.98904 2.20906
      vertex -2.15 -8.85317 1.07295
    endloop
  endfacet
  facet normal -1 -0 0
    outer loop
      vertex -2.15 -7.73205 3
      vertex -2.15 -8.85317 2.92705
      vertex -2.15 -7.76336 4.42705
    endloop
  endfacet
  facet normal 0 0 -1
    outer loop
      vertex -2.15 -6 -1
      vertex -0.85 -2.87792e-16 -1
      vertex -0.85 -6 -1
    endloop
  endfacet
  facet normal 0 0 -1
    outer loop
      vertex -0.85 -2.87792e-16 -1
      vertex -2.15 -6 -1
      vertex -2.15 -4.46996e-16 -1
    endloop
  endfacet
  facet normal 1 0 0
    outer loop
      vertex -0.85 -2.87792e-16 5
      vertex -0.85 -4.01096 2.20906
      vertex -0.85 -2.87792e-16 -1
    endloop
  endfacet
  facet normal 1 0 0
    outer loop
      vertex -0.85 -2.87792e-16 5
      vertex -0.85 -4.26795 3
      vertex -0.85 -4.01096 2.20906
    endloop
  endfacet
  facet normal 1 0 0
    outer loop
      vertex -0.85 -2.87792e-16 5
      vertex -0.85 -4.82443 3.61803
      vertex -0.85 -4.26795 3
    endloop
  endfacet
  facet normal 1 -0 0
    outer loop
      vertex -0.85 -6 5
      vertex -0.85 -4.82443 3.61803
      vertex -0.85 -2.87792e-16 5
    endloop
  endfacet
  facet normal 1 0 0
    outer loop
      vertex -0.85 -4.82443 3.61803
      vertex -0.85 -6 5
      vertex -0.85 -5.58418 3.9563
    endloop
  endfacet
  facet normal 1 0 0
    outer loop
      vertex -0.85 -6 5
      vertex -0.85 -6.41582 3.9563
      vertex -0.85 -5.58418 3.9563
    endloop
  endfacet
  facet normal 1 -0 0
    outer loop
      vertex -0.85 -7.76336 4.42705
      vertex -0.85 -6.41582 3.9563
      vertex -0.85 -6 5
    endloop
  endfacet
  facet normal 1 0 0
    outer loop
      vertex -0.85 -6.41582 3.9563
      vertex -0.85 -7.76336 4.42705
      vertex -0.85 -7.17557 3.61803
    endloop
  endfacet
  facet normal 1 0 0
    outer loop
      vertex -0.85 -7.17557 3.61803
      vertex -0.85 -7.76336 4.42705
      vertex -0.85 -7.73205 3
    endloop
  endfacet
  facet normal 1 0 0
    outer loop
      vertex -0.85 -8.85317 2.92705
      vertex -0.85 -7.73205 3
      vertex -0.85 -7.76336 4.42705
    endloop
  endfacet
  facet normal 1 0 0
    outer loop
      vertex -0.85 -7.73205 3
      vertex -0.85 -8.85317 2.92705
      vertex -0.85 -7.98904 2.20906
    endloop
  endfacet
  facet normal 1 -0 0
    outer loop
      vertex -0.85 -4.09789 1.38197
      vertex -0.85 -2.87792e-16 -1
      vertex -0.85 -4.01096 2.20906
    endloop
  endfacet
  facet normal 1 -0 0
    outer loop
      vertex -0.85 -4.51371 0.661739
      vertex -0.85 -2.87792e-16 -1
      vertex -0.85 -4.09789 1.38197
    endloop
  endfacet
  facet normal 1 -0 0
    outer loop
      vertex -0.85 -5.18653 0.17291
      vertex -0.85 -2.87792e-16 -1
      vertex -0.85 -4.51371 0.661739
    endloop
  endfacet
  facet normal 1 0 0
    outer loop
      vertex -0.85 -6 -1
      vertex -0.85 -5.18653 0.17291
      vertex -0.85 -6 -5.21805e-16
    endloop
  endfacet
  facet normal 1 0 0
    outer loop
      vertex -0.85 -5.18653 0.17291
      vertex -0.85 -6 -1
      vertex -0.85 -2.87792e-16 -1
    endloop
  endfacet
  facet normal 1 0 0
    outer loop
      vertex -0.85 -6.81347 0.17291
      vertex -0.85 -6 -1
      vertex -0.85 -6 -5.21805e-16
    endloop
  endfacet
  facet normal 1 0 0
    outer loop
      vertex -0.85 -7.76336 -0.427051
      vertex -0.85 -6.81347 0.17291
      vertex -0.85 -7.48629 0.661739
    endloop
  endfacet
  facet normal 1 0 0
    outer loop
      vertex -0.85 -6.81347 0.17291
      vertex -0.85 -7.76336 -0.427051
      vertex -0.85 -6 -1
    endloop
  endfacet
  facet normal 1 -0 0
    outer loop
      vertex -0.85 -8.85317 1.07295
      vertex -0.85 -7.48629 0.661739
      vertex -0.85 -7.90211 1.38197
    endloop
  endfacet
  facet normal 1 0 0
    outer loop
      vertex -0.85 -8.85317 1.07295
      vertex -0.85 -7.90211 1.38197
      vertex -0.85 -7.98904 2.20906
    endloop
  endfacet
  facet normal 1 0 0
    outer loop
      vertex -0.85 -8.85317 1.07295
      vertex -0.85 -7.98904 2.20906
      vertex -0.85 -8.85317 2.92705
    endloop
  endfacet
  facet normal 1 0 0
    outer loop
      vertex -0.85 -7.48629 0.661739
      vertex -0.85 -8.85317 1.07295
      vertex -0.85 -7.76336 -0.427051
    endloop
  endfacet
  facet normal -1.22465e-16 1 0
    outer loop
      vertex -0.85 -2.87792e-16 -1
      vertex -2.15 -4.46996e-16 5
      vertex -0.85 -2.87792e-16 5
    endloop
  endfacet
  facet normal -1.22465e-16 1 0
    outer loop
      vertex -2.15 -4.46996e-16 5
      vertex -0.85 -2.87792e-16 -1
      vertex -2.15 -4.46996e-16 -1
    endloop
  endfacet
  facet normal 0 -0.309017 -0.951056
    outer loop
      vertex -2.15 -7.76336 -0.427051
      vertex -0.85 -6 -1
      vertex -0.85 -7.76336 -0.427051
    endloop
  endfacet
  facet normal -0 -0.309017 -0.951056
    outer loop
      vertex -0.85 -6 -1
      vertex -2.15 -7.76336 -0.427051
      vertex -2.15 -6 -1
    endloop
  endfacet
  facet normal 0 -1 0
    outer loop
      vertex -2.15 -8.85317 1.07295
      vertex -0.85 -8.85317 2.92705
      vertex -2.15 -8.85317 2.92705
    endloop
  endfacet
  facet normal 0 -1 -0
    outer loop
      vertex -0.85 -8.85317 2.92705
      vertex -2.15 -8.85317 1.07295
      vertex -0.85 -8.85317 1.07295
    endloop
  endfacet
  facet normal 0 -0.809017 -0.587785
    outer loop
      vertex -2.15 -7.76336 -0.427051
      vertex -0.85 -8.85317 1.07295
      vertex -2.15 -8.85317 1.07295
    endloop
  endfacet
  facet normal 0 -0.809017 -0.587785
    outer loop
      vertex -0.85 -8.85317 1.07295
      vertex -2.15 -7.76336 -0.427051
      vertex -0.85 -7.76336 -0.427051
    endloop
  endfacet
  facet normal 0 -0.309017 0.951056
    outer loop
      vertex -2.15 -6 5
      vertex -0.85 -7.76336 4.42705
      vertex -0.85 -6 5
    endloop
  endfacet
  facet normal 0 -0.309017 0.951056
    outer loop
      vertex -0.85 -7.76336 4.42705
      vertex -2.15 -6 5
      vertex -2.15 -7.76336 4.42705
    endloop
  endfacet
  facet normal 0 -0.809017 0.587785
    outer loop
      vertex -2.15 -8.85317 2.92705
      vertex -0.85 -7.76336 4.42705
      vertex -2.15 -7.76336 4.42705
    endloop
  endfacet
  facet normal 0 -0.809017 0.587785
    outer loop
      vertex -0.85 -7.76336 4.42705
      vertex -2.15 -8.85317 2.92705
      vertex -0.85 -8.85317 2.92705
    endloop
  endfacet
  facet normal -2.17192e-16 0.207913 0.978147
    outer loop
      vertex -2.15 -6 -8.10463e-16
      vertex -0.85 -6.81347 0.17291
      vertex -0.85 -6 -5.21805e-16
    endloop
  endfacet
  facet normal 0 0.207913 0.978147
    outer loop
      vertex -0.85 -6.81347 0.17291
      vertex -2.15 -6 -8.10463e-16
      vertex -2.15 -6.81347 0.17291
    endloop
  endfacet
  facet normal 0 0 -1
    outer loop
      vertex -2.15 -6.41582 3.9563
      vertex -0.85 -5.58418 3.9563
      vertex -0.85 -6.41582 3.9563
    endloop
  endfacet
  facet normal -0 0 -1
    outer loop
      vertex -0.85 -5.58418 3.9563
      vertex -2.15 -6.41582 3.9563
      vertex -2.15 -5.58418 3.9563
    endloop
  endfacet
  facet normal 0 0.994522 0.104528
    outer loop
      vertex -0.85 -7.90211 1.38197
      vertex -2.15 -7.98904 2.20906
      vertex -0.85 -7.98904 2.20906
    endloop
  endfacet
  facet normal 0 0.994522 0.104528
    outer loop
      vertex -2.15 -7.98904 2.20906
      vertex -0.85 -7.90211 1.38197
      vertex -2.15 -7.90211 1.38197
    endloop
  endfacet
  facet normal 0 -0.994522 0.104528
    outer loop
      vertex -2.15 -4.09789 1.38197
      vertex -0.85 -4.01096 2.20906
      vertex -2.15 -4.01096 2.20906
    endloop
  endfacet
  facet normal 0 -0.994522 0.104528
    outer loop
      vertex -0.85 -4.01096 2.20906
      vertex -2.15 -4.09789 1.38197
      vertex -0.85 -4.09789 1.38197
    endloop
  endfacet
  facet normal 0 -0.866025 0.5
    outer loop
      vertex -2.15 -4.51371 0.661739
      vertex -0.85 -4.09789 1.38197
      vertex -2.15 -4.09789 1.38197
    endloop
  endfacet
  facet normal 0 -0.866025 0.5
    outer loop
      vertex -0.85 -4.09789 1.38197
      vertex -2.15 -4.51371 0.661739
      vertex -0.85 -4.51371 0.661739
    endloop
  endfacet
  facet normal 0 0.866025 0.5
    outer loop
      vertex -0.85 -7.48629 0.661739
      vertex -2.15 -7.90211 1.38197
      vertex -0.85 -7.90211 1.38197
    endloop
  endfacet
  facet normal 0 0.866025 0.5
    outer loop
      vertex -2.15 -7.90211 1.38197
      vertex -0.85 -7.48629 0.661739
      vertex -2.15 -7.48629 0.661739
    endloop
  endfacet
  facet normal -0 0.587785 0.809017
    outer loop
      vertex -2.15 -6.81347 0.17291
      vertex -0.85 -7.48629 0.661739
      vertex -0.85 -6.81347 0.17291
    endloop
  endfacet
  facet normal 0 0.587785 0.809017
    outer loop
      vertex -0.85 -7.48629 0.661739
      vertex -2.15 -6.81347 0.17291
      vertex -2.15 -7.48629 0.661739
    endloop
  endfacet
  facet normal 0 0.743146 -0.66913
    outer loop
      vertex -0.85 -7.73205 3
      vertex -2.15 -7.17557 3.61803
      vertex -0.85 -7.17557 3.61803
    endloop
  endfacet
  facet normal 0 0.743146 -0.66913
    outer loop
      vertex -2.15 -7.17557 3.61803
      vertex -0.85 -7.73205 3
      vertex -2.15 -7.73205 3
    endloop
  endfacet
  facet normal 0 0.406737 -0.913545
    outer loop
      vertex -2.15 -7.17557 3.61803
      vertex -0.85 -6.41582 3.9563
      vertex -0.85 -7.17557 3.61803
    endloop
  endfacet
  facet normal 0 0.406737 -0.913545
    outer loop
      vertex -0.85 -6.41582 3.9563
      vertex -2.15 -7.17557 3.61803
      vertex -2.15 -6.41582 3.9563
    endloop
  endfacet
  facet normal 0 0.951056 -0.309018
    outer loop
      vertex -0.85 -7.98904 2.20906
      vertex -2.15 -7.73205 3
      vertex -0.85 -7.73205 3
    endloop
  endfacet
  facet normal 0 0.951056 -0.309018
    outer loop
      vertex -2.15 -7.73205 3
      vertex -0.85 -7.98904 2.20906
      vertex -2.15 -7.98904 2.20906
    endloop
  endfacet
  facet normal 0 -0.951056 -0.309017
    outer loop
      vertex -2.15 -4.01096 2.20906
      vertex -0.85 -4.26795 3
      vertex -2.15 -4.26795 3
    endloop
  endfacet
  facet normal 0 -0.951056 -0.309017
    outer loop
      vertex -0.85 -4.26795 3
      vertex -2.15 -4.01096 2.20906
      vertex -0.85 -4.01096 2.20906
    endloop
  endfacet
  facet normal 0 -0.406737 -0.913545
    outer loop
      vertex -2.15 -5.58418 3.9563
      vertex -0.85 -4.82443 3.61803
      vertex -0.85 -5.58418 3.9563
    endloop
  endfacet
  facet normal -0 -0.406737 -0.913545
    outer loop
      vertex -0.85 -4.82443 3.61803
      vertex -2.15 -5.58418 3.9563
      vertex -2.15 -4.82443 3.61803
    endloop
  endfacet
  facet normal 0 -0.587785 0.809017
    outer loop
      vertex -2.15 -4.51371 0.661739
      vertex -0.85 -5.18653 0.17291
      vertex -0.85 -4.51371 0.661739
    endloop
  endfacet
  facet normal 0 -0.587785 0.809017
    outer loop
      vertex -0.85 -5.18653 0.17291
      vertex -2.15 -4.51371 0.661739
      vertex -2.15 -5.18653 0.17291
    endloop
  endfacet
  facet normal 0 -0.207912 0.978147
    outer loop
      vertex -2.15 -5.18653 0.17291
      vertex -0.85 -6 -5.21805e-16
      vertex -0.85 -5.18653 0.17291
    endloop
  endfacet
  facet normal -2.17192e-16 -0.207912 0.978147
    outer loop
      vertex -0.85 -6 -5.21805e-16
      vertex -2.15 -5.18653 0.17291
      vertex -2.15 -6 -8.10463e-16
    endloop
  endfacet
  facet normal 0 -0.743145 -0.66913
    outer loop
      vertex -2.15 -4.26795 3
      vertex -0.85 -4.82443 3.61803
      vertex -2.15 -4.82443 3.61803
    endloop
  endfacet
  facet normal 0 -0.743145 -0.66913
    outer loop
      vertex -0.85 -4.82443 3.61803
      vertex -2.15 -4.26795 3
      vertex -0.85 -4.26795 3
    endloop
  endfacet
endsolid OpenSCAD_Model
